<svg width="360" height="360" viewBox="0 0 360 360" fill="none" xmlns="http://www.w3.org/2000/svg">
<path fill-rule="evenodd" clip-rule="evenodd" d="M179.68 0C278.91 0 359.36 80.46 359.36 179.68C359.36 278.9 278.9 359.36 179.68 359.36C80.4599 359.36 0 278.91 0 179.68C0 80.45 80.4499 0 179.68 0Z" fill="#7C9AF2"/>
<path fill-rule="evenodd" clip-rule="evenodd" d="M179.679 14.9688C88.7194 14.9688 14.9795 88.7087 14.9795 179.669C14.9795 270.629 88.7194 344.379 179.679 344.379C270.639 344.379 344.39 270.639 344.39 179.669C344.39 88.6987 270.649 14.9688 179.679 14.9688Z" fill="#E9EFF8"/>
<path fill-rule="evenodd" clip-rule="evenodd" d="M210.859 177.839C210.859 177.839 212.059 214.909 216.799 231.499L254.339 257.679L113.049 278.829L146.739 232.269C146.739 232.269 156.919 182.589 151.589 164.219C146.249 145.829 210.859 177.839 210.859 177.839Z" fill="#D0D9EE"/>
<path fill-rule="evenodd" clip-rule="evenodd" d="M211.059 182.969C211.059 182.969 199.879 209.869 178.849 209.269C157.809 208.679 153.02 184.879 153.02 184.879L211.059 182.959V182.969Z" fill="#BCC9E7"/>
<path fill-rule="evenodd" clip-rule="evenodd" d="M223.619 161.19C223.619 161.19 230.419 127.26 235.159 117C239.899 106.74 243.849 60.8797 191.299 58.5197C191.299 58.5197 171.139 60.8797 160.079 54.1797C160.079 54.1797 160.079 60.8797 162.849 63.2597C162.849 63.2597 144.659 58.8997 130.449 74.7097C116.219 90.5197 139.929 145.84 138.739 158.89L223.629 161.19H223.619Z" fill="#8D9FCA"/>
<path fill-rule="evenodd" clip-rule="evenodd" d="M152.179 97.2402H210.349C218.159 97.2402 224.569 104.74 224.569 113.94V153.15C224.569 178.3 196.499 198.61 181.259 198.88C163.779 199.2 137.949 177.31 137.949 150.94V113.94C137.949 104.75 144.349 97.2402 152.189 97.2402H152.179Z" fill="#D0D9EE"/>
<path fill-rule="evenodd" clip-rule="evenodd" d="M224.57 134.879C224.57 134.879 224.49 111.309 205.82 107.679C187.14 104.059 145.35 119.179 139.42 101.989C133.49 84.7885 220.2 85.0785 224.56 96.0485C228.93 107.029 224.56 134.879 224.56 134.879H224.57Z" fill="#8D9FCA"/>
<path fill-rule="evenodd" clip-rule="evenodd" d="M98.7096 241.05V241.13C115.81 236.83 131.88 234.01 146.74 232.28C159.86 249.69 169.26 253.72 181.25 258.46C200.54 255.8 216.8 232.04 216.8 231.5C237.82 233.65 251.99 237.51 257.75 239.3C258.4 239.38 278.75 242.09 312.31 277.36C282.31 318.02 234.08 344.39 179.69 344.39C125.3 344.39 76.8296 317.88 46.8496 277.06C79.5696 242.64 98.7096 241.06 98.7096 241.06V241.05Z" fill="#BCC9E7"/>
<path fill-rule="evenodd" clip-rule="evenodd" d="M214.84 222.469C214.84 222.469 221.11 225.079 222.88 232.189C222.88 232.189 197.72 258.079 181.25 258.459L214.84 222.469Z" fill="#7C9AF2"/>
<path fill-rule="evenodd" clip-rule="evenodd" d="M181.249 258.47L148.769 221.17C148.769 221.17 142.069 225.57 142.169 232.83C142.169 232.83 167.279 259.45 181.249 258.47Z" fill="#7C9AF2"/>
<path fill-rule="evenodd" clip-rule="evenodd" d="M187.109 255.719C187.109 255.719 191.769 295.899 196.329 343.549C190.859 344.099 185.309 344.379 179.679 344.379C176.159 344.379 172.669 344.249 169.189 344.039C173.119 296.289 176.549 255.549 176.549 255.549L187.089 255.719H187.109Z" fill="#7C9AF2"/>
<path fill-rule="evenodd" clip-rule="evenodd" d="M193.589 245.239C193.589 245.239 178.609 243.729 169.489 244.649C167.679 244.849 166.669 246.819 167.549 248.409C170.119 253.019 175.319 260.989 180.779 260.989C188.449 260.989 200.379 245.769 193.589 245.239Z" fill="#7C9AF2"/>
</svg>